<?xml version="1.0" encoding="UTF-8" standalone="no"?>
<svg
   xmlns:dc="http://purl.org/dc/elements/1.1/"
   xmlns:cc="http://creativecommons.org/ns#"
   xmlns:rdf="http://www.w3.org/1999/02/22-rdf-syntax-ns#"
   xmlns:svg="http://www.w3.org/2000/svg"
   xmlns="http://www.w3.org/2000/svg"
   xmlns:sodipodi="http://sodipodi.sourceforge.net/DTD/sodipodi-0.dtd"
   xmlns:inkscape="http://www.inkscape.org/namespaces/inkscape"
   id="Warstwa_1"
   viewBox="0 0 664.07 848.02"
   version="1.1"
   sodipodi:docname="logo-portfolio.svg"
   inkscape:version="1.0.2 (e86c870, 2021-01-15)">
  <metadata
     id="metadata54">
    <rdf:RDF>
      <cc:Work
         rdf:about="">
        <dc:format>image/svg+xml</dc:format>
        <dc:type
           rdf:resource="http://purl.org/dc/dcmitype/StillImage" />
      </cc:Work>
    </rdf:RDF>
  </metadata>
  <sodipodi:namedview
     pagecolor="#ffffff"
     bordercolor="#666666"
     borderopacity="1"
     objecttolerance="10"
     gridtolerance="10"
     guidetolerance="10"
     inkscape:pageopacity="0"
     inkscape:pageshadow="2"
     inkscape:window-width="702"
     inkscape:window-height="480"
     id="namedview52"
     showgrid="false"
     inkscape:zoom="0.99290111"
     inkscape:cx="332.035"
     inkscape:cy="424.01"
     inkscape:window-x="0"
     inkscape:window-y="0"
     inkscape:window-maximized="0"
     inkscape:current-layer="Warstwa_1" />
  <defs
     id="defs35">
    <style
       id="style33">.cls-1{fill:none;stroke:#000;stroke-miterlimit:10;}</style>
  </defs>
  <g
          className="svg-container"
          transform="translate(0 457) scale(.1 -.1)"
          fill="none"
        >
  <path
     id="polygon49"
     style="fill:none;stroke:#000000;stroke-miterlimit:10"
     d="m 0.5,46.67 h 226.18 l 80.42,415.5 69.81,-415.5 H 612.58 V 847.52 H 455.65 V 397.95 L 364.06,847.52 H 242.88 l -105,-449.57 V 847.52 H 0.5 Z M 275.57,1 226.29,45.67 H 3.09 L 52.37,1 h 223.2 m 2.59,-1 H 51.98 L 0.5,46.67 H 226.68 L 278.16,0 Z M 277.52,1.93 334.21,294.8 307.03,456.54 227.77,47.03 277.52,1.93 M 278.16,0 226.68,46.67 307.1,462.17 335.22,294.79 278.16,0 Z m -139.28,406.63 50.5,216.22 -1.01,177.56 -49.49,44.86 V 406.63 m -1,-8.68 v 449.57 l 51.48,-46.67 1.01,-178.11 -52.5,-224.78 v 0 z m 316.77,9.92 v 196.02 l -40.02,196.43 -48.98,44.4 89,-436.86 m 1,-9.92 -91.59,449.57 51.48,-46.67 40.1,-196.85 v -206.04 0 z M 663.07,2.26 V 800.4 l -49.48,44.86 V 47.11 L 663.07,2.26 m 1,-2.26 -51.48,46.67 v 800.85 l 51.48,-46.67 V 0 Z M 661.48,1 612.2,45.67 H 379.5 L 428.78,1 h 232.7 m 2.59,-1 H 428.4 L 376.92,46.67 H 612.59 L 664.07,0 Z" /></g>
</svg>
