<?xml version="1.0" encoding="UTF-8"?><svg id="Warstwa_1" xmlns="http://www.w3.org/2000/svg" viewBox="0 0 664.07 848.02"><defs><style>.cls-1{fill:none;stroke:#000;stroke-miterlimit:10;}</style></defs><path d="M661.48,1l-49.28,44.67h-232.7L428.78,1h232.7M664.07,0h-235.67l-51.48,46.67h235.67L664.07,0h0Z"/><path d="M663.07,2.26V800.4l-49.48,44.86V47.11L663.07,2.26M664.07,0l-51.48,46.67V847.52l51.48-46.67V0h0Z"/><path d="M454.65,407.87v196.02l-40.02,196.43-48.98,44.4,89-436.86m1-9.92l-91.59,449.57,51.48-46.67,40.1-196.85v-206.04h0Z"/><path d="M138.88,406.63l50.5,216.22-1.01,177.56-49.49,44.86V406.63m-1-8.68v449.57l51.48-46.67,1.01-178.11-52.5-224.78h0Z"/><path d="M277.52,1.93l56.69,292.87-27.18,161.74L227.77,47.03,277.52,1.93M278.16,0l-51.48,46.67,80.42,415.5,28.12-167.38L278.16,0h0Z"/><path d="M275.57,1l-49.28,44.67H3.09L52.37,1h223.2M278.16,0H51.98L.5,46.67H226.68L278.16,0h0Z"/><polygon class="cls-1" points=".5 46.67 226.68 46.67 307.1 462.17 376.91 46.67 612.58 46.67 612.58 847.52 455.65 847.52 455.65 397.95 364.06 847.52 242.88 847.52 137.88 397.95 137.88 847.52 .5 847.52 .5 46.67"/></svg>